HIERARCHY
ROOT joint_Root
{
	OFFSET 0.0 0.0 0.0
	CHANNELS 6 Xposition Yposition Zposition Zrotation Xrotation Yrotation 
	JOINT Hips
	{
		OFFSET -0.726466 93.3139 -2.00062
		CHANNELS 6 Xposition Yposition Zposition Zrotation Xrotation Yrotation 
		JOINT Spine
		{
			OFFSET 15.7357 0.0 0.0
			CHANNELS 6 Xposition Yposition Zposition Zrotation Xrotation Yrotation 
			JOINT Chest
			{
				OFFSET 8.98455 -0.406207 0.0
				CHANNELS 6 Xposition Yposition Zposition Zrotation Xrotation Yrotation 
				JOINT Neck
				{
					OFFSET 16.3773 0.0 0.0
					CHANNELS 6 Xposition Yposition Zposition Zrotation Xrotation Yrotation 
					JOINT Head
					{
						OFFSET 6.45672 0.0 0.0
						CHANNELS 6 Xposition Yposition Zposition Zrotation Xrotation Yrotation 
						End Site
						{
							OFFSET 0.0 0.0 0.0
						}
					}
				}
				JOINT Shoulder_L
				{
					OFFSET 12.9942 -0.242716 4.98039
					CHANNELS 6 Xposition Yposition Zposition Zrotation Xrotation Yrotation 
					JOINT UpperArm_L
					{
						OFFSET 5.34809 0.0 0.0
						CHANNELS 6 Xposition Yposition Zposition Zrotation Xrotation Yrotation 
						JOINT LowerArm_L
						{
							OFFSET 24.3286 1.87007e-05 0.0
							CHANNELS 6 Xposition Yposition Zposition Zrotation Xrotation Yrotation 
							JOINT Hand_L
							{
								OFFSET 22.2916 0.0 0.0
								CHANNELS 6 Xposition Yposition Zposition Zrotation Xrotation Yrotation 
								End Site
								{
									OFFSET 0.0 0.0 0.0
								}
							}
						}
					}
				}
				JOINT Shoulder_R
				{
					OFFSET 12.9945 -0.242716 -4.98039
					CHANNELS 6 Xposition Yposition Zposition Zrotation Xrotation Yrotation 
					JOINT UpperArm_R
					{
						OFFSET -5.34813 0.0 0.0
						CHANNELS 6 Xposition Yposition Zposition Zrotation Xrotation Yrotation 
						JOINT LowerArm_R
						{
							OFFSET -24.3289 0.000322201 0.0
							CHANNELS 6 Xposition Yposition Zposition Zrotation Xrotation Yrotation 
							JOINT Hand_R
							{
								OFFSET -22.2915 -0.000108084 0.0
								CHANNELS 6 Xposition Yposition Zposition Zrotation Xrotation Yrotation 
								End Site
								{
									OFFSET 0.0 0.0 0.0
								}
							}
						}
					}
				}
			}
		}
		JOINT UpperLeg_L
		{
			OFFSET -2.19248 -6.46944 0.0
			CHANNELS 6 Xposition Yposition Zposition Zrotation Xrotation Yrotation 
			JOINT LowerLeg_L
			{
				OFFSET 39.0811 0.0 -1.23785e-05
				CHANNELS 6 Xposition Yposition Zposition Zrotation Xrotation Yrotation 
				JOINT Foot_L
				{
					OFFSET 40.9854 0.0 -1.26872e-05
					CHANNELS 6 Xposition Yposition Zposition Zrotation Xrotation Yrotation 
					JOINT Toes_L
					{
						OFFSET 11.7543 0.0 0.0
						CHANNELS 6 Xposition Yposition Zposition Zrotation Xrotation Yrotation 
						End Site
						{
							OFFSET 0.0 0.0 0.0
						}
					}
				}
			}
		}
		JOINT UpperLeg_R
		{
			OFFSET -2.19251 6.46944 0.0
			CHANNELS 6 Xposition Yposition Zposition Zrotation Xrotation Yrotation 
			JOINT LowerLeg_R
			{
				OFFSET -39.0811 -0.00228153 -0.0401928
				CHANNELS 6 Xposition Yposition Zposition Zrotation Xrotation Yrotation 
				JOINT Foot_R
				{
					OFFSET -40.9854 0.0 0.0
					CHANNELS 6 Xposition Yposition Zposition Zrotation Xrotation Yrotation 
					JOINT Toes_R
					{
						OFFSET -11.7543 0.0 0.0
						CHANNELS 6 Xposition Yposition Zposition Zrotation Xrotation Yrotation 
						End Site
						{
							OFFSET 0.0 0.0 0.0
						}
					}
				}
			}
		}
	}
}
MOTION
Frames:	7
Frame Time:	0.0333333
0.000000 0.000000 0.000000 0.000000 0.000000 -0.000000 -0.441847 92.169200 -0.562466 88.141200 -0.329335 6.807990 15.735700 0.000005 -0.000001 79.019600 85.885500 -78.405100 8.984550 -0.406207 -0.000000 0.321569 -1.606860 1.232710 16.377300 -0.000001 -0.000001 5.861600 -2.164060 0.473478 6.456720 -0.000001 -0.000000 10.438400 -2.548090 -1.665560 12.994200 -0.242716 4.980390 -86.727300 -10.730700 -72.927600 5.348090 -0.000007 -0.000001 -83.743500 -26.300700 -96.421500 24.328600 0.000019 0.000005 19.614600 2.228530 -83.772900 22.291600 -0.000001 0.000005 24.653100 5.577470 -10.076700 12.994500 -0.242716 -4.980390 91.592200 -5.449390 -73.685700 -5.348130 -0.000001 -0.000004 -73.745100 -26.770900 -103.618000 -24.328900 0.000322 -0.000009 22.767100 7.088430 -73.616300 -22.291500 -0.000108 -0.000004 24.328800 5.442070 -4.358360 -2.192480 -6.469440 -0.000000 -175.093000 -8.459200 -0.334272 39.081100 -0.000007 -0.000012 -0.112262 0.254722 23.784300 40.985400 -0.000006 -0.000013 0.159627 4.340630 -66.779300 11.754300 -0.000000 0.000003 -0.000051 -0.000573 -16.599800 -2.192510 6.469440 -0.000001 178.780000 14.865400 -177.496000 -39.081100 -0.002282 -0.040193 -0.046154 0.133344 20.356300 -40.985400 0.000008 0.000006 3.051990 7.181840 -66.332600 -11.754300 -0.000006 -0.000006 -0.008410 -0.091343 -20.293100
0.000000 0.000000 0.000000 0.000000 0.000000 -0.000000 -0.451962 92.187300 -0.638879 88.207300 -0.217515 6.725450 15.735700 0.000005 -0.000001 79.101300 85.848200 -78.497300 8.984550 -0.406207 -0.000000 0.396941 -1.608340 1.212770 16.377300 -0.000001 -0.000001 5.817950 -2.194880 0.444929 6.456720 -0.000001 -0.000000 10.272000 -2.561180 -1.616780 12.994200 -0.242716 4.980390 -86.756700 -10.508700 -72.739900 5.348090 -0.000007 -0.000001 -83.170300 -26.298800 -95.570500 24.328600 0.000019 0.000005 18.656900 1.869930 -84.480100 22.291600 -0.000001 0.000005 24.090500 5.573250 -9.855690 12.994500 -0.242716 -4.980390 91.544700 -5.184780 -73.384500 -5.348130 -0.000001 -0.000004 -72.401700 -27.330700 -102.673000 -24.328900 0.000322 -0.000009 22.018000 6.424420 -74.535200 -22.291500 -0.000108 -0.000004 24.135800 5.433180 -4.048620 -2.192480 -6.469440 -0.000000 -175.183000 -8.379720 -0.423790 39.081100 -0.000007 -0.000012 -0.111072 0.253545 23.657100 40.985400 -0.000006 -0.000013 0.159030 4.376730 -66.654900 11.754300 -0.000000 0.000003 -0.000048 -0.000543 -16.598700 -2.192510 6.469440 -0.000001 178.738000 14.970000 -177.593000 -39.081100 -0.002282 -0.040193 -0.046147 0.133698 20.304300 -40.985400 0.000008 0.000006 3.016480 7.191580 -66.264300 -11.754300 -0.000006 -0.000006 -0.007874 -0.086998 -20.115600
0.000000 0.000000 0.000000 0.000000 0.000000 -0.000000 -0.475357 92.193000 -0.706566 88.164800 -0.210577 6.614100 15.735700 0.000005 -0.000001 79.300200 85.807400 -78.669700 8.984550 -0.406207 -0.000000 0.482812 -1.596400 1.266900 16.377300 -0.000001 -0.000001 5.699460 -2.196800 0.371041 6.456720 -0.000001 -0.000000 10.106500 -2.557160 -1.541300 12.994200 -0.242716 4.980390 -86.821400 -10.047000 -72.342200 5.348090 -0.000007 -0.000001 -81.908200 -26.143500 -93.674800 24.328600 0.000019 0.000005 16.840400 1.224560 -85.962500 22.291600 -0.000001 0.000005 23.625600 5.568710 -9.622400 12.994500 -0.242716 -4.980390 91.449600 -4.752560 -73.015100 -5.348130 -0.000001 -0.000004 -70.389700 -27.673100 -100.741000 -24.328900 0.000322 -0.000009 20.428300 5.185980 -76.361300 -22.291500 -0.000108 -0.000004 23.772600 5.416780 -3.490020 -2.192480 -6.469440 -0.000000 -175.145000 -8.402350 -0.618000 39.081100 -0.000007 -0.000012 -0.111665 0.254399 23.698600 40.985400 -0.000006 -0.000013 0.149856 4.388560 -66.612800 11.754300 -0.000000 0.000003 -0.000043 -0.000494 -16.596800 -2.192510 6.469440 -0.000001 178.840000 14.965200 -177.747000 -39.081100 -0.002282 -0.040193 -0.046153 0.133973 20.268200 -40.985400 0.000008 0.000006 2.980780 7.176290 -66.188100 -11.754300 -0.000006 -0.000006 -0.008267 -0.090195 -20.246200
0.000000 0.000000 0.000000 0.000000 0.000000 -0.000000 -0.474803 92.200300 -0.762175 88.177700 -0.265297 6.601650 15.735700 0.000005 -0.000001 79.979400 85.766600 -79.352100 8.984550 -0.406207 -0.000000 0.580614 -1.512090 1.261300 16.377300 -0.000001 -0.000001 5.594200 -2.189930 0.398092 6.456720 -0.000001 -0.000000 10.085000 -2.526050 -1.566440 12.994200 -0.242716 4.980390 -86.977200 -9.361220 -72.014000 5.348090 -0.000007 -0.000001 -79.272500 -25.808900 -90.110000 24.328600 0.000019 0.000005 12.800800 0.398827 -88.249000 22.291600 -0.000001 0.000005 23.645200 5.573120 -9.848410 12.994500 -0.242716 -4.980390 91.280100 -4.097910 -72.635500 -5.348130 -0.000001 -0.000004 -67.574900 -27.658100 -97.341500 -24.328900 0.000322 -0.000009 17.934200 3.500280 -79.321000 -22.291500 -0.000108 -0.000004 22.911700 5.400920 -2.966660 -2.192480 -6.469440 -0.000000 -175.161000 -8.444680 -0.646447 39.081100 -0.000007 -0.000012 -0.110937 0.253125 23.666400 40.985400 -0.000006 -0.000013 0.154476 4.397870 -66.561900 11.754300 -0.000000 0.000003 -0.000047 -0.000536 -16.598400 -2.192510 6.469440 -0.000001 178.827000 14.962500 -177.798000 -39.081100 -0.002282 -0.040193 -0.048028 0.139126 20.258100 -40.985400 0.000008 0.000006 2.954620 7.259270 -66.137100 -11.754300 -0.000006 -0.000006 -0.008049 -0.088429 -20.174000
0.000000 0.000000 0.000000 0.000000 0.000000 -0.000000 -0.495989 92.193100 -0.785194 88.184200 -0.289273 6.698790 15.735700 0.000005 -0.000001 80.054300 85.715900 -79.440000 8.984550 -0.406207 -0.000000 0.682179 -1.517300 1.236630 16.377300 -0.000001 -0.000001 5.525830 -2.197890 0.560933 6.456720 -0.000001 -0.000000 10.276300 -2.346210 -1.820540 12.994200 -0.242716 4.980390 -87.214700 -8.512350 -71.805700 5.348090 -0.000007 -0.000001 -74.988400 -25.160700 -84.663400 24.328600 0.000019 0.000005 6.656210 -0.146974 -91.268700 22.291600 -0.000001 0.000005 24.094200 5.590830 -10.806900 12.994500 -0.242716 -4.980390 91.060700 -3.350980 -72.423200 -5.348130 -0.000001 -0.000004 -63.855500 -26.998100 -92.141100 -24.328900 0.000322 -0.000009 14.080800 1.636630 -83.510500 -22.291500 -0.000108 -0.000004 21.778300 5.391900 -2.676570 -2.192480 -6.469440 -0.000000 -175.148000 -8.423220 -0.581455 39.081100 -0.000007 -0.000012 -0.111408 0.253629 23.713800 40.985400 -0.000006 -0.000013 0.127172 4.325110 -66.572600 11.754300 -0.000000 0.000003 -0.000042 -0.000484 -16.596400 -2.192510 6.469440 -0.000001 178.780000 14.964800 -177.727000 -39.081100 -0.002282 -0.040193 -0.053431 0.153568 20.282200 -40.985400 0.000008 0.000006 2.745820 7.338110 -66.099000 -11.754300 -0.000006 -0.000006 -0.008004 -0.088069 -20.159300
0.000000 0.000000 0.000000 0.000000 0.000000 -0.000000 -0.515989 92.167700 -0.778622 88.164900 -0.303927 6.809250 15.735700 0.000005 -0.000001 80.517000 85.679400 -79.892900 8.984550 -0.406207 -0.000000 0.765694 -1.461280 1.257200 16.377300 -0.000001 -0.000001 5.460490 -2.106270 0.565589 6.456720 -0.000001 -0.000000 10.551600 -2.298450 -1.917730 12.994200 -0.242716 4.980390 -87.578300 -7.456050 -71.948900 5.348090 -0.000007 -0.000001 -69.093100 -23.824900 -77.487100 24.328600 0.000019 0.000005 0.891668 -0.072333 -94.678000 22.291600 -0.000001 0.000005 24.672800 5.617140 -12.424200 12.994500 -0.242716 -4.980390 90.794800 -2.488690 -72.282400 -5.348130 -0.000001 -0.000004 -59.263600 -25.533900 -85.513300 -24.328900 0.000322 -0.000009 9.756710 0.280549 -88.377500 -22.291500 -0.000108 -0.000004 20.151100 5.396900 -2.840260 -2.192480 -6.469440 -0.000000 -175.076000 -8.494100 -0.555482 39.081100 -0.000007 -0.000012 -0.112848 0.254716 23.895000 40.985400 -0.000006 -0.000013 0.134703 4.413380 -66.663400 11.754300 -0.000000 0.000003 -0.000046 -0.000524 -16.597900 -2.192510 6.469440 -0.000001 178.749000 15.003800 -177.671000 -39.081100 -0.002282 -0.040193 -0.061208 0.173349 20.417600 -40.985400 0.000008 0.000006 2.601910 7.381710 -66.149000 -11.754300 -0.000006 -0.000006 -0.008225 -0.089857 -20.232300
0.000000 0.000000 0.000000 0.000000 0.000000 -0.000000 -0.547261 92.140900 -0.752125 88.162200 -0.291273 7.109160 15.735700 0.000005 -0.000001 80.835900 85.589000 -80.226500 8.984550 -0.406207 -0.000000 0.951718 -1.440690 1.229850 16.377300 -0.000001 -0.000001 5.514360 -2.116990 0.566401 6.456720 -0.000001 -0.000000 10.701500 -2.206890 -1.937240 12.994200 -0.242716 4.980390 -87.985800 -6.348410 -72.356300 5.348090 -0.000007 -0.000001 -62.439600 -21.279000 -69.184100 24.328600 0.000019 0.000005 -1.440380 0.201589 -97.961500 22.291600 -0.000001 0.000005 24.609200 5.635030 -13.724500 12.994500 -0.242716 -4.980390 90.456100 -1.428280 -72.286600 -5.348130 -0.000001 -0.000004 -53.745700 -22.774900 -77.570500 -24.328900 0.000322 -0.000009 6.268740 -0.363199 -93.311000 -22.291500 -0.000108 -0.000004 18.422500 5.412280 -3.342240 -2.192480 -6.469440 -0.000000 -175.010000 -8.418240 -0.304292 39.081100 -0.000007 -0.000012 -0.112668 0.252517 24.045500 40.985400 -0.000006 -0.000013 0.110490 4.395490 -66.761600 11.754300 -0.000000 0.000003 -0.000047 -0.000532 -16.598200 -2.192510 6.469440 -0.000001 178.647000 15.041000 -177.382000 -39.081100 -0.002282 -0.040193 -0.066234 0.185652 20.538300 -40.985400 0.000008 0.000006 2.464940 7.470650 -66.223500 -11.754300 -0.000006 -0.000006 -0.008127 -0.089064 -20.200000
